{"title":"The Big Bang Theory S04e04 - The Hot Troll Deviation [XviD - Eng","uid":5888019,"size":183648846,"categoryP":"video","categoryS":"tv_shows","magnet":"?xt=urn:btih:f355b2562d6658b7657682d2fffcf3691bed38bf&amp;dn=The+Big+Bang+Theory+S04e04+-+The+Hot+Troll+Deviation+%5BXviD+-+Eng&amp;tr=udp%3A%2F%2Ftracker.openbittorrent.com%3A80&amp;tr=udp%3A%2F%2Fopen.demonii.com%3A1337&amp;tr=udp%3A%2F%2Ftracker.coppersurfer.tk%3A6969&amp;tr=udp%3A%2F%2Fexodus.desync.com%3A6969","seeders":2,"leechers":1,"uploader":"Cer8one","files":1,"time":1287132011,"description":"[IMG]http://img839.imageshack.us/img839/672/episode.gif[/IMG]\n\nEpisode 4: The Hot Troll Deviation\n\n[IMG]http://img842.imageshack.us/img842/6425/reportpq.gif[/IMG]\n\nGeneral\nComplete name                    : K:\\Download Completi\\the.big.bang.theory.s04e04.hdtv.xvid-fqm.avi\nFormat                           : AVI\nFormat/Info                      : Audio Video Interleave\nFile size                        : 175 MiB\nDuration                         : 19mn 3s\nOverall bit rate                 : 1 284 Kbps\nWriting application              : transcode-1.0.4\n\nVideo\nID                               : 0\nFormat                           : MPEG-4 Visual\nFormat profile                   : Advanced Simple@L5\nFormat settings, BVOP            : Yes\nFormat settings, QPel            : No\nFormat settings, GMC             : No warppoints\nFormat settings, Matrix          : Default (H.263)\nCodec ID                         : XVID\nCodec ID/Hint                    : XviD\nDuration                         : 19mn 3s\nBit rate                         : 1 109 Kbps\nWidth                            : 624 pixels\nHeight                           : 352 pixels\nDisplay aspect ratio             : 16:9\nFrame rate                       : 23.976 fps\nColor space                      : YUV\nChroma subsampling               : 4:2:0\nBit depth                        : 8 bits\nScan type                        : Progressive\nBits/(Pixel*Frame)               : 0.211\nStream size                      : 151 MiB (86%)\nWriting library                  : XviD 1.2.1 (UTC 2008-12-04)\n\nAudio\nID                               : 1\nFormat                           : MPEG Audio\nFormat version                   : Version 1\nFormat profile                   : Layer 3\nCodec ID                         : 55\nCodec ID/Hint                    : MP3\nDuration                         : 19mn 3s\nBit rate mode                    : Variable\nBit rate                         : 128 Kbps\nChannel(s)                       : 2 channels\nSampling rate                    : 48.0 KHz\nBit depth                        : 16 bits\nStream size                      : 22.2 MiB (13%)\nAlignment                        : Aligned on interleaves\nInterleave, duration             : 24 ms (0.58 video frame)\n\n[IMG]http://img153.imageshack.us/img153/7241/screenshotx.gif[/IMG]\n\n[IMG]http://img233.imageshack.us/img233/9715/thumbs20101015080539.jpg[/IMG]","torrent":{"xt":"urn:btih:f355b2562d6658b7657682d2fffcf3691bed38bf","amp;dn":"The+Big+Bang+Theory+S04e04+-+The+Hot+Troll+Deviation+%5BXviD+-+Eng","amp;tr":["udp%3A%2F%2Ftracker.openbittorrent.com%3A80","udp%3A%2F%2Fopen.demonii.com%3A1337","udp%3A%2F%2Ftracker.coppersurfer.tk%3A6969","udp%3A%2F%2Fexodus.desync.com%3A6969"],"infoHash":"f355b2562d6658b7657682d2fffcf3691bed38bf","infoHashBuffer":{"type":"Buffer","data":[243,85,178,86,45,102,88,183,101,118,130,210,255,252,243,105,27,237,56,191]},"announce":[],"urlList":[]}}